<mxfile host="Electron" modified="2024-05-24T04:18:11.880Z" agent="Mozilla/5.0 (Windows NT 10.0; Win64; x64) AppleWebKit/537.36 (KHTML, like Gecko) draw.io/22.1.16 Chrome/120.0.6099.109 Electron/28.1.0 Safari/537.36" etag="7YgKYCbtiQ7F_L86_ARB" version="22.1.16" type="device">
  <diagram name="Page-1" id="ZDVTGvkGhkuu7oXeUw0Z">
    <mxGraphModel dx="880" dy="572" grid="1" gridSize="10" guides="1" tooltips="1" connect="1" arrows="1" fold="1" page="1" pageScale="1" pageWidth="900" pageHeight="1600" math="0" shadow="0">
      <root>
        <mxCell id="0" />
        <mxCell id="1" parent="0" />
        <mxCell id="jjOs-MebMPRoqMaLnQdF-2" value="" style="shape=umlLifeline;perimeter=lifelinePerimeter;whiteSpace=wrap;html=1;container=1;dropTarget=0;collapsible=0;recursiveResize=0;outlineConnect=0;portConstraint=eastwest;newEdgeStyle={&quot;curved&quot;:0,&quot;rounded&quot;:0};participant=umlActor;" parent="1" vertex="1">
          <mxGeometry x="120" y="40" width="30" height="920" as="geometry" />
        </mxCell>
        <mxCell id="jjOs-MebMPRoqMaLnQdF-42" value="" style="html=1;points=[[0,0,0,0,5],[0,1,0,0,-5],[1,0,0,0,5],[1,1,0,0,-5]];perimeter=orthogonalPerimeter;outlineConnect=0;targetShapes=umlLifeline;portConstraint=eastwest;newEdgeStyle={&quot;curved&quot;:0,&quot;rounded&quot;:0};" parent="jjOs-MebMPRoqMaLnQdF-2" vertex="1">
          <mxGeometry x="10" y="40" width="10" height="730" as="geometry" />
        </mxCell>
        <mxCell id="jjOs-MebMPRoqMaLnQdF-5" value="Website" style="shape=umlLifeline;perimeter=lifelinePerimeter;whiteSpace=wrap;html=1;container=1;dropTarget=0;collapsible=0;recursiveResize=0;outlineConnect=0;portConstraint=eastwest;newEdgeStyle={&quot;curved&quot;:0,&quot;rounded&quot;:0};" parent="1" vertex="1">
          <mxGeometry x="320" y="40" width="100" height="930" as="geometry" />
        </mxCell>
        <mxCell id="jjOs-MebMPRoqMaLnQdF-45" value="" style="html=1;points=[[0,0,0,0,5],[0,1,0,0,-5],[1,0,0,0,5],[1,1,0,0,-5]];perimeter=orthogonalPerimeter;outlineConnect=0;targetShapes=umlLifeline;portConstraint=eastwest;newEdgeStyle={&quot;curved&quot;:0,&quot;rounded&quot;:0};" parent="jjOs-MebMPRoqMaLnQdF-5" vertex="1">
          <mxGeometry x="45" y="50" width="10" height="720" as="geometry" />
        </mxCell>
        <mxCell id="jjOs-MebMPRoqMaLnQdF-6" value="Database" style="shape=umlLifeline;perimeter=lifelinePerimeter;whiteSpace=wrap;html=1;container=1;dropTarget=0;collapsible=0;recursiveResize=0;outlineConnect=0;portConstraint=eastwest;newEdgeStyle={&quot;curved&quot;:0,&quot;rounded&quot;:0};" parent="1" vertex="1">
          <mxGeometry x="560" y="40" width="100" height="920" as="geometry" />
        </mxCell>
        <mxCell id="jjOs-MebMPRoqMaLnQdF-36" value="" style="html=1;points=[];perimeter=orthogonalPerimeter;outlineConnect=0;targetShapes=umlLifeline;portConstraint=eastwest;newEdgeStyle={&quot;edgeStyle&quot;:&quot;elbowEdgeStyle&quot;,&quot;elbow&quot;:&quot;vertical&quot;,&quot;curved&quot;:0,&quot;rounded&quot;:0};" parent="jjOs-MebMPRoqMaLnQdF-6" vertex="1">
          <mxGeometry x="45" y="380" width="10" height="80" as="geometry" />
        </mxCell>
        <mxCell id="jjOs-MebMPRoqMaLnQdF-7" value="alt" style="shape=umlFrame;whiteSpace=wrap;html=1;pointerEvents=0;recursiveResize=0;container=1;collapsible=0;width=50;height=20;" parent="1" vertex="1">
          <mxGeometry x="120" y="120" width="290" height="170" as="geometry" />
        </mxCell>
        <mxCell id="jjOs-MebMPRoqMaLnQdF-8" value="" style="line;strokeWidth=1;dashed=1;labelPosition=center;verticalLabelPosition=bottom;align=left;verticalAlign=top;spacingLeft=20;spacingTop=15;html=1;whiteSpace=wrap;" parent="jjOs-MebMPRoqMaLnQdF-7" vertex="1">
          <mxGeometry y="80" width="290" height="10" as="geometry" />
        </mxCell>
        <mxCell id="jjOs-MebMPRoqMaLnQdF-9" value="[Network issue]" style="text;html=1;align=center;verticalAlign=middle;resizable=0;points=[];autosize=1;strokeColor=none;fillColor=none;" parent="jjOs-MebMPRoqMaLnQdF-7" vertex="1">
          <mxGeometry x="55" width="110" height="30" as="geometry" />
        </mxCell>
        <mxCell id="jjOs-MebMPRoqMaLnQdF-13" value="" style="html=1;verticalAlign=bottom;labelBackgroundColor=none;endArrow=none;endFill=0;dashed=1;rounded=0;startArrow=block;startFill=1;" parent="jjOs-MebMPRoqMaLnQdF-7" source="jjOs-MebMPRoqMaLnQdF-2" edge="1">
          <mxGeometry width="160" relative="1" as="geometry">
            <mxPoint x="130" y="50" as="sourcePoint" />
            <mxPoint x="290" y="50" as="targetPoint" />
          </mxGeometry>
        </mxCell>
        <mxCell id="jjOs-MebMPRoqMaLnQdF-10" value="" style="html=1;verticalAlign=bottom;labelBackgroundColor=none;endArrow=none;endFill=0;dashed=1;rounded=0;startArrow=block;startFill=1;" parent="1" source="jjOs-MebMPRoqMaLnQdF-2" target="jjOs-MebMPRoqMaLnQdF-5" edge="1">
          <mxGeometry width="160" relative="1" as="geometry">
            <mxPoint x="160" y="270" as="sourcePoint" />
            <mxPoint x="275" y="270" as="targetPoint" />
            <Array as="points">
              <mxPoint x="210" y="270" />
            </Array>
          </mxGeometry>
        </mxCell>
        <mxCell id="jjOs-MebMPRoqMaLnQdF-11" value="Notify User" style="edgeLabel;html=1;align=center;verticalAlign=middle;resizable=0;points=[];" parent="jjOs-MebMPRoqMaLnQdF-10" vertex="1" connectable="0">
          <mxGeometry x="-0.0609" y="1" relative="1" as="geometry">
            <mxPoint x="26" y="-99" as="offset" />
          </mxGeometry>
        </mxCell>
        <mxCell id="jjOs-MebMPRoqMaLnQdF-12" value="Send Sign In&lt;br style=&quot;border-color: var(--border-color);&quot;&gt;Form" style="edgeLabel;html=1;align=center;verticalAlign=middle;resizable=0;points=[];" parent="jjOs-MebMPRoqMaLnQdF-10" vertex="1" connectable="0">
          <mxGeometry x="0.0783" y="1" relative="1" as="geometry">
            <mxPoint as="offset" />
          </mxGeometry>
        </mxCell>
        <mxCell id="jjOs-MebMPRoqMaLnQdF-14" value="" style="endArrow=block;startArrow=none;endFill=1;startFill=0;endSize=8;html=1;verticalAlign=bottom;labelBackgroundColor=none;strokeWidth=1;rounded=0;" parent="1" target="jjOs-MebMPRoqMaLnQdF-5" edge="1">
          <mxGeometry width="160" relative="1" as="geometry">
            <mxPoint x="140" y="340" as="sourcePoint" />
            <mxPoint x="245" y="340" as="targetPoint" />
          </mxGeometry>
        </mxCell>
        <mxCell id="jjOs-MebMPRoqMaLnQdF-15" value="Fill&amp;nbsp;&amp;nbsp;&lt;br&gt;Form" style="edgeLabel;html=1;align=center;verticalAlign=middle;resizable=0;points=[];" parent="jjOs-MebMPRoqMaLnQdF-14" vertex="1" connectable="0">
          <mxGeometry x="-0.2381" y="3" relative="1" as="geometry">
            <mxPoint as="offset" />
          </mxGeometry>
        </mxCell>
        <mxCell id="jjOs-MebMPRoqMaLnQdF-16" value="" style="endArrow=block;startArrow=none;endFill=1;startFill=0;endSize=8;html=1;verticalAlign=bottom;labelBackgroundColor=none;strokeWidth=1;rounded=0;" parent="1" target="jjOs-MebMPRoqMaLnQdF-5" edge="1">
          <mxGeometry width="160" relative="1" as="geometry">
            <mxPoint x="140" y="380" as="sourcePoint" />
            <mxPoint x="245" y="380" as="targetPoint" />
          </mxGeometry>
        </mxCell>
        <mxCell id="jjOs-MebMPRoqMaLnQdF-17" value="Submit&amp;nbsp;&lt;br&gt;Form" style="edgeLabel;html=1;align=center;verticalAlign=middle;resizable=0;points=[];" parent="jjOs-MebMPRoqMaLnQdF-16" vertex="1" connectable="0">
          <mxGeometry x="-0.2381" y="3" relative="1" as="geometry">
            <mxPoint as="offset" />
          </mxGeometry>
        </mxCell>
        <mxCell id="jjOs-MebMPRoqMaLnQdF-18" style="rounded=0;orthogonalLoop=1;jettySize=auto;html=1;exitX=1;exitY=0;exitDx=0;exitDy=5;exitPerimeter=0;" parent="1" target="jjOs-MebMPRoqMaLnQdF-5" edge="1">
          <mxGeometry relative="1" as="geometry">
            <mxPoint x="135" y="95" as="sourcePoint" />
            <mxPoint x="250" y="95" as="targetPoint" />
          </mxGeometry>
        </mxCell>
        <mxCell id="jjOs-MebMPRoqMaLnQdF-19" value="Request&amp;nbsp;&lt;br&gt;Form" style="edgeLabel;html=1;align=center;verticalAlign=middle;resizable=0;points=[];" parent="jjOs-MebMPRoqMaLnQdF-18" vertex="1" connectable="0">
          <mxGeometry x="-0.3886" relative="1" as="geometry">
            <mxPoint as="offset" />
          </mxGeometry>
        </mxCell>
        <mxCell id="jjOs-MebMPRoqMaLnQdF-20" value="" style="endArrow=block;startArrow=none;endFill=1;startFill=0;endSize=8;html=1;verticalAlign=bottom;labelBackgroundColor=none;strokeWidth=1;rounded=0;edgeStyle=orthogonalEdgeStyle;elbow=vertical;" parent="1" edge="1">
          <mxGeometry width="160" relative="1" as="geometry">
            <mxPoint x="370" y="80" as="sourcePoint" />
            <mxPoint x="370" y="125" as="targetPoint" />
            <Array as="points">
              <mxPoint x="471" y="80" />
              <mxPoint x="471" y="125" />
            </Array>
          </mxGeometry>
        </mxCell>
        <mxCell id="jjOs-MebMPRoqMaLnQdF-21" value="Process&lt;br style=&quot;border-color: var(--border-color); text-align: left;&quot;&gt;&lt;span style=&quot;text-align: left;&quot;&gt;Request&lt;/span&gt;" style="edgeLabel;html=1;align=center;verticalAlign=middle;resizable=0;points=[];" parent="jjOs-MebMPRoqMaLnQdF-20" vertex="1" connectable="0">
          <mxGeometry x="0.4667" y="-1" relative="1" as="geometry">
            <mxPoint as="offset" />
          </mxGeometry>
        </mxCell>
        <mxCell id="jjOs-MebMPRoqMaLnQdF-22" value="alt" style="shape=umlFrame;whiteSpace=wrap;html=1;pointerEvents=0;recursiveResize=0;container=1;collapsible=0;width=50;height=20;" parent="1" vertex="1">
          <mxGeometry x="100" y="400" width="620" height="190" as="geometry" />
        </mxCell>
        <mxCell id="jjOs-MebMPRoqMaLnQdF-23" value="" style="line;strokeWidth=1;dashed=1;labelPosition=center;verticalLabelPosition=bottom;align=left;verticalAlign=top;spacingLeft=20;spacingTop=15;html=1;whiteSpace=wrap;" parent="jjOs-MebMPRoqMaLnQdF-22" vertex="1">
          <mxGeometry y="110" width="620" height="10" as="geometry" />
        </mxCell>
        <mxCell id="jjOs-MebMPRoqMaLnQdF-24" value="[Form Valid]" style="text;html=1;align=center;verticalAlign=middle;resizable=0;points=[];autosize=1;strokeColor=none;fillColor=none;" parent="jjOs-MebMPRoqMaLnQdF-22" vertex="1">
          <mxGeometry x="65" width="90" height="30" as="geometry" />
        </mxCell>
        <mxCell id="jjOs-MebMPRoqMaLnQdF-25" value="" style="html=1;verticalAlign=bottom;labelBackgroundColor=none;endArrow=none;endFill=0;dashed=1;rounded=0;startArrow=block;startFill=1;" parent="jjOs-MebMPRoqMaLnQdF-22" edge="1">
          <mxGeometry width="160" relative="1" as="geometry">
            <mxPoint x="35" y="150" as="sourcePoint" />
            <mxPoint x="269.5" y="150" as="targetPoint" />
            <Array as="points">
              <mxPoint x="85" y="150" />
            </Array>
          </mxGeometry>
        </mxCell>
        <mxCell id="jjOs-MebMPRoqMaLnQdF-26" value="Report pb&lt;br&gt;To client" style="edgeLabel;html=1;align=center;verticalAlign=middle;resizable=0;points=[];" parent="jjOs-MebMPRoqMaLnQdF-25" vertex="1" connectable="0">
          <mxGeometry x="0.0783" y="1" relative="1" as="geometry">
            <mxPoint y="21" as="offset" />
          </mxGeometry>
        </mxCell>
        <mxCell id="jjOs-MebMPRoqMaLnQdF-34" value="" style="endArrow=block;startArrow=none;endFill=1;startFill=0;endSize=8;html=1;verticalAlign=bottom;labelBackgroundColor=none;strokeWidth=1;rounded=0;" parent="jjOs-MebMPRoqMaLnQdF-22" target="jjOs-MebMPRoqMaLnQdF-6" edge="1">
          <mxGeometry width="160" relative="1" as="geometry">
            <mxPoint x="280" y="30" as="sourcePoint" />
            <mxPoint x="500" y="22" as="targetPoint" />
          </mxGeometry>
        </mxCell>
        <mxCell id="jjOs-MebMPRoqMaLnQdF-35" value="Request User&amp;nbsp;&lt;br&gt;Informations" style="edgeLabel;html=1;align=center;verticalAlign=middle;resizable=0;points=[];" parent="jjOs-MebMPRoqMaLnQdF-34" vertex="1" connectable="0">
          <mxGeometry x="-0.2381" y="3" relative="1" as="geometry">
            <mxPoint as="offset" />
          </mxGeometry>
        </mxCell>
        <mxCell id="jjOs-MebMPRoqMaLnQdF-38" value="" style="shape=umlDestroy;html=1;" parent="1" vertex="1">
          <mxGeometry x="120" y="960" width="30" height="30" as="geometry" />
        </mxCell>
        <mxCell id="jjOs-MebMPRoqMaLnQdF-39" value="" style="shape=umlDestroy;html=1;" parent="1" vertex="1">
          <mxGeometry x="355" y="970" width="30" height="30" as="geometry" />
        </mxCell>
        <mxCell id="jjOs-MebMPRoqMaLnQdF-40" value="" style="shape=umlDestroy;html=1;" parent="1" vertex="1">
          <mxGeometry x="595" y="960" width="30" height="30" as="geometry" />
        </mxCell>
        <mxCell id="jjOs-MebMPRoqMaLnQdF-41" value="" style="shape=umlDestroy;html=1;" parent="1" vertex="1">
          <mxGeometry x="705" y="880" width="30" height="30" as="geometry" />
        </mxCell>
        <mxCell id="jjOs-MebMPRoqMaLnQdF-29" value="" style="endArrow=none;startArrow=block;endFill=0;startFill=1;endSize=8;html=1;verticalAlign=bottom;labelBackgroundColor=none;strokeWidth=1;rounded=0;dashed=1;dashPattern=8 8;" parent="1" edge="1">
          <mxGeometry width="160" relative="1" as="geometry">
            <mxPoint x="375" y="470" as="sourcePoint" />
            <mxPoint x="609.5" y="470" as="targetPoint" />
          </mxGeometry>
        </mxCell>
        <mxCell id="jjOs-MebMPRoqMaLnQdF-30" value="Return &lt;br&gt;Result" style="edgeLabel;html=1;align=center;verticalAlign=middle;resizable=0;points=[];" parent="jjOs-MebMPRoqMaLnQdF-29" vertex="1" connectable="0">
          <mxGeometry x="-0.2381" y="3" relative="1" as="geometry">
            <mxPoint as="offset" />
          </mxGeometry>
        </mxCell>
        <mxCell id="EVzh7YT9NFrKgXxSxyD4-40" value="Run Query" style="html=1;align=left;spacingLeft=2;endArrow=block;rounded=0;edgeStyle=orthogonalEdgeStyle;curved=0;rounded=0;" edge="1" parent="1">
          <mxGeometry x="-0.0476" y="10" relative="1" as="geometry">
            <mxPoint x="610" y="430" as="sourcePoint" />
            <Array as="points">
              <mxPoint x="640" y="430" />
              <mxPoint x="640" y="480" />
            </Array>
            <mxPoint x="615" y="480" as="targetPoint" />
            <mxPoint as="offset" />
          </mxGeometry>
        </mxCell>
        <mxCell id="EVzh7YT9NFrKgXxSxyD4-41" value="alt" style="shape=umlFrame;whiteSpace=wrap;html=1;pointerEvents=0;recursiveResize=0;container=1;collapsible=0;width=50;height=20;" vertex="1" parent="1">
          <mxGeometry x="90" y="610" width="320" height="220" as="geometry" />
        </mxCell>
        <mxCell id="EVzh7YT9NFrKgXxSxyD4-42" value="" style="line;strokeWidth=1;dashed=1;labelPosition=center;verticalLabelPosition=bottom;align=left;verticalAlign=top;spacingLeft=20;spacingTop=15;html=1;whiteSpace=wrap;" vertex="1" parent="EVzh7YT9NFrKgXxSxyD4-41">
          <mxGeometry y="110" width="320" height="10" as="geometry" />
        </mxCell>
        <mxCell id="EVzh7YT9NFrKgXxSxyD4-43" value="[Result.isNotEmpty()]" style="text;html=1;align=center;verticalAlign=middle;resizable=0;points=[];autosize=1;strokeColor=none;fillColor=none;" vertex="1" parent="EVzh7YT9NFrKgXxSxyD4-41">
          <mxGeometry x="90" width="140" height="30" as="geometry" />
        </mxCell>
        <mxCell id="EVzh7YT9NFrKgXxSxyD4-44" value="" style="html=1;verticalAlign=bottom;labelBackgroundColor=none;endArrow=none;endFill=0;dashed=1;rounded=0;startArrow=open;startFill=0;" edge="1" parent="EVzh7YT9NFrKgXxSxyD4-41">
          <mxGeometry width="160" relative="1" as="geometry">
            <mxPoint x="42.75" y="130" as="sourcePoint" />
            <mxPoint x="277.25" y="130" as="targetPoint" />
            <Array as="points">
              <mxPoint x="92.75" y="130" />
            </Array>
          </mxGeometry>
        </mxCell>
        <mxCell id="EVzh7YT9NFrKgXxSxyD4-45" value="Clear&lt;br&gt;Password Field" style="edgeLabel;html=1;align=center;verticalAlign=middle;resizable=0;points=[];" vertex="1" connectable="0" parent="EVzh7YT9NFrKgXxSxyD4-44">
          <mxGeometry x="0.0783" y="1" relative="1" as="geometry">
            <mxPoint y="21" as="offset" />
          </mxGeometry>
        </mxCell>
        <mxCell id="jjOs-MebMPRoqMaLnQdF-27" value="" style="html=1;verticalAlign=bottom;labelBackgroundColor=none;endArrow=none;endFill=0;dashed=1;rounded=0;startArrow=open;startFill=0;" parent="EVzh7YT9NFrKgXxSxyD4-41" edge="1">
          <mxGeometry width="160" relative="1" as="geometry">
            <mxPoint x="40.25" y="50" as="sourcePoint" />
            <mxPoint x="279.75" y="50" as="targetPoint" />
            <Array as="points">
              <mxPoint x="90.25" y="50" />
            </Array>
          </mxGeometry>
        </mxCell>
        <mxCell id="jjOs-MebMPRoqMaLnQdF-28" value="Login&amp;nbsp;&lt;br&gt;Successfull" style="edgeLabel;html=1;align=center;verticalAlign=middle;resizable=0;points=[];" parent="jjOs-MebMPRoqMaLnQdF-27" vertex="1" connectable="0">
          <mxGeometry x="0.0783" y="1" relative="1" as="geometry">
            <mxPoint as="offset" />
          </mxGeometry>
        </mxCell>
        <mxCell id="EVzh7YT9NFrKgXxSxyD4-48" value="" style="html=1;verticalAlign=bottom;labelBackgroundColor=none;endArrow=none;endFill=0;dashed=1;rounded=0;startArrow=block;startFill=1;" edge="1" parent="EVzh7YT9NFrKgXxSxyD4-41">
          <mxGeometry width="160" relative="1" as="geometry">
            <mxPoint x="42.75" y="180" as="sourcePoint" />
            <mxPoint x="277.25" y="180" as="targetPoint" />
            <Array as="points">
              <mxPoint x="92.75" y="180" />
            </Array>
          </mxGeometry>
        </mxCell>
        <mxCell id="EVzh7YT9NFrKgXxSxyD4-49" value="Report pb&lt;br&gt;To client" style="edgeLabel;html=1;align=center;verticalAlign=middle;resizable=0;points=[];" vertex="1" connectable="0" parent="EVzh7YT9NFrKgXxSxyD4-48">
          <mxGeometry x="0.0783" y="1" relative="1" as="geometry">
            <mxPoint y="21" as="offset" />
          </mxGeometry>
        </mxCell>
        <mxCell id="EVzh7YT9NFrKgXxSxyD4-50" value="" style="html=1;verticalAlign=bottom;labelBackgroundColor=none;endArrow=none;endFill=0;dashed=1;rounded=0;startArrow=open;startFill=0;" edge="1" parent="EVzh7YT9NFrKgXxSxyD4-41">
          <mxGeometry width="160" relative="1" as="geometry">
            <mxPoint x="40.25" y="90" as="sourcePoint" />
            <mxPoint x="279.75" y="90" as="targetPoint" />
            <Array as="points">
              <mxPoint x="90.25" y="90" />
            </Array>
          </mxGeometry>
        </mxCell>
        <mxCell id="EVzh7YT9NFrKgXxSxyD4-51" value="Redirect&lt;br&gt;User to&amp;nbsp;&lt;br&gt;Home Feed" style="edgeLabel;html=1;align=center;verticalAlign=middle;resizable=0;points=[];" vertex="1" connectable="0" parent="EVzh7YT9NFrKgXxSxyD4-50">
          <mxGeometry x="0.0783" y="1" relative="1" as="geometry">
            <mxPoint as="offset" />
          </mxGeometry>
        </mxCell>
        <mxCell id="EVzh7YT9NFrKgXxSxyD4-52" value="Client:User" style="text;html=1;align=center;verticalAlign=middle;resizable=0;points=[];autosize=1;strokeColor=none;fillColor=none;" vertex="1" parent="1">
          <mxGeometry x="95" width="80" height="30" as="geometry" />
        </mxCell>
      </root>
    </mxGraphModel>
  </diagram>
</mxfile>
